# xmcd
#
# Track frame offsets:
#	150
#	14222
#	30272
#	49100
#	62737
#	78330
#	96260
#	108417
#	123320
#	140465
#	150845
#	165987
#	175357
#	185867
#	201930
#	215260
#
# Disc length: 3026 seconds
#
# Revision: 0
# Processed by: cddbd v1.4PL0 Copyright (c) Steve Scherf et al.
# Submitted via: dBpowerAMP V4.0
#
DISCID=d60bd010
DTITLE=Blue Hawaiians - High Ball
DYEAR=1900
DGENRE=Blues
TTITLE0=Rockin' Daddy
TTITLE1=Love And War
TTITLE2=Who Drank My Beer
TTITLE3=Big Boss Man
TTITLE4=Walkin' Thur The Park
TTITLE5=Kidney Stew Blues
TTITLE6=Quiet Whiskey
TTITLE7=She Moves Me
TTITLE8=Bright Lights, Big City
TTITLE9=Train Kept A Rollin'
TTITLE10=Don't Go No Further
TTITLE11=Rocket 88
TTITLE12=The Shape You're In
TTITLE13=Six Days On The Road
TTITLE14=Sittin'On It All The Time
TTITLE15=Rock On !
EXTD=
EXTT0=
EXTT1=
EXTT2=
EXTT3=
EXTT4=
EXTT5=
EXTT6=
EXTT7=
EXTT8=
EXTT9=
EXTT10=
EXTT11=
EXTT12=
EXTT13=
EXTT14=
EXTT15=
PLAYORDER=
